<svg width="42px" height="42px" viewBox="0 0 42 42" version="1.1" xmlns="http://www.w3.org/2000/svg" xmlns:xlink="http://www.w3.org/1999/xlink" xmlns:sketch="http://www.bohemiancoding.com/sketch/ns">
    <!-- Generator: Sketch 3.3.3 (12081) - http://www.bohemiancoding.com/sketch -->
    <title>Logo</title>
    <desc>Created with Sketch.</desc>
    <defs></defs>
    <g id="clean" stroke="none" stroke-width="1" fill="none" fill-rule="evenodd" sketch:type="MSPage">
        <g id="Edit-Office-Copy-8" sketch:type="MSArtboardGroup" transform="translate(-49.000000, -50.000000)" fill="#FFFFFF">
            <g id="Global-Controls" sketch:type="MSLayerGroup" transform="translate(29.800000, 30.000000)">
                <path d="M41.8957815,30.975681 C41.5019629,30.8831773 41.0969878,31.0776722 40.9190847,31.4465349 L37.2203969,39.0837477 C37.0889236,39.3571927 37.1050238,39.6815316 37.2630188,39.9393221 C37.4206799,40.1971126 37.7021315,40.3550804 38.0008858,40.3550804 L41.699106,40.3550804 C41.928249,40.3550804 42.1523815,40.2608148 42.3138504,40.0972222 C42.475453,39.9324775 42.5690475,39.7049116 42.5690475,39.4738896 L42.5690475,31.8349826 C42.5690475,31.424578 42.2903349,31.0685235 41.8957815,30.975681 Z M48.6530266,22.0083126 L48.6530266,39.4738896 C48.6530266,39.7049116 48.7451514,39.9324775 48.9072884,40.0972222 C49.0690246,40.2608148 49.2932907,40.3550804 49.5218324,40.3550804 L60.3111249,40.3550804 C60.1622822,32.255688 55.4399333,25.2912786 48.6530266,22.0083126 Z M59.5115296,46.5276854 L49.5218324,46.5276854 C49.2932907,46.5276854 49.0690246,46.6205279 48.9072884,46.784866 C48.7451514,46.9489329 48.6530266,47.1774475 48.6530266,47.4090795 L48.6530266,59.489451 C53.8766173,56.96305 57.8773996,52.2551884 59.5115296,46.5276854 Z M41.699106,46.5276854 L34.1589002,46.5276854 C33.8260082,46.5276854 33.5247153,46.7168266 33.37781,47.0190731 L28.1686493,57.7779634 C31.4827377,60.1236265 35.5123801,61.5 39.8597495,61.5 C40.7785259,61.5 41.6828723,61.437721 42.5690475,61.3187877 L42.5690475,47.4090795 C42.5690475,47.1774475 42.475453,46.9489329 42.3138504,46.784866 C42.1523815,46.6205279 41.928249,46.5276854 41.699106,46.5276854 Z M25.4427835,46.5276854 L20.2077691,46.5276854 C20.9144379,49.0046156 22.0640273,51.2901682 23.5632101,53.2918396 L26.2237401,47.7976627 C26.3547457,47.5243533 26.3391132,47.2002854 26.1809845,46.9426983 C26.0231231,46.6851111 25.7420723,46.5276854 25.4427835,46.5276854 Z M19.408107,40.3550804 L29.2853036,40.3550804 C29.6177947,40.3550804 29.918954,40.1644483 30.0654585,39.8617274 L39.6823809,20 C28.5958706,20.0958921 19.6144024,29.1363824 19.408107,40.3550804 Z" id="Logo" sketch:type="MSShapeGroup"></path>
            </g>
        </g>
    </g>
</svg>